<svg width="175" height="40" viewBox="0 0 175 40" fill="none" xmlns="http://www.w3.org/2000/svg">
<rect width="175" height="40" rx="20" fill="#DBE2EC" fill-opacity="0.6"/>
<circle cx="20" cy="20" r="17" fill="white"/>
<path d="M28.8448 27.2186C27.5359 24.9559 25.519 23.3334 23.1652 22.5643C24.3295 21.8711 25.2341 20.815 25.74 19.558C26.246 18.301 26.3253 16.9127 25.9659 15.6062C25.6065 14.2998 24.8281 13.1474 23.7504 12.3261C22.6726 11.5049 21.3551 11.0601 20.0001 11.0601C18.6451 11.0601 17.3275 11.5049 16.2498 12.3261C15.172 13.1474 14.3937 14.2998 14.0342 15.6062C13.6748 16.9127 13.7542 18.301 14.2601 19.558C14.7661 20.815 15.6707 21.8711 16.835 22.5643C14.4812 23.3326 12.4642 24.9551 11.1554 27.2186C11.1074 27.2969 11.0756 27.384 11.0618 27.4748C11.048 27.5655 11.0525 27.6581 11.0751 27.7471C11.0976 27.8361 11.1378 27.9197 11.1932 27.9929C11.2486 28.0661 11.3181 28.1275 11.3976 28.1734C11.4771 28.2193 11.565 28.2488 11.6561 28.2603C11.7472 28.2717 11.8396 28.2647 11.928 28.2398C12.0164 28.2149 12.0988 28.1725 12.1706 28.1152C12.2423 28.0579 12.3018 27.9868 12.3456 27.9061C13.9647 25.108 16.8264 23.4374 20.0001 23.4374C23.1738 23.4374 26.0355 25.108 27.6545 27.9061C27.6983 27.9868 27.7579 28.0579 27.8296 28.1152C27.9013 28.1725 27.9838 28.2149 28.0722 28.2398C28.1605 28.2647 28.253 28.2717 28.3441 28.2603C28.4352 28.2488 28.5231 28.2193 28.6026 28.1734C28.6821 28.1275 28.7516 28.0661 28.807 27.9929C28.8624 27.9197 28.9025 27.8361 28.9251 27.7471C28.9477 27.6581 28.9522 27.5655 28.9384 27.4748C28.9246 27.384 28.8928 27.2969 28.8448 27.2186ZM15.1876 17.2499C15.1876 16.2981 15.4698 15.3676 15.9986 14.5762C16.5274 13.7848 17.279 13.168 18.1584 12.8037C19.0378 12.4395 20.0054 12.3442 20.939 12.5299C21.8725 12.7156 22.73 13.1739 23.403 13.8469C24.0761 14.52 24.5344 15.3775 24.7201 16.311C24.9058 17.2446 24.8105 18.2122 24.4462 19.0916C24.082 19.9709 23.4652 20.7225 22.6738 21.2513C21.8823 21.7801 20.9519 22.0624 20.0001 22.0624C18.7241 22.061 17.5009 21.5536 16.5986 20.6513C15.6964 19.7491 15.1889 18.5258 15.1876 17.2499Z" fill="#253A67"/>
<path d="M53.006 25L50.85 21.192H49.926V25H47.966V15.228H51.634C52.39 15.228 53.034 15.3633 53.566 15.634C54.098 15.8953 54.4947 16.2547 54.756 16.712C55.0267 17.16 55.162 17.664 55.162 18.224C55.162 18.868 54.9753 19.4513 54.602 19.974C54.2287 20.4873 53.6733 20.842 52.936 21.038L55.274 25H53.006ZM49.926 19.722H51.564C52.096 19.722 52.4927 19.596 52.754 19.344C53.0153 19.0827 53.146 18.7233 53.146 18.266C53.146 17.818 53.0153 17.4727 52.754 17.23C52.4927 16.978 52.096 16.852 51.564 16.852H49.926V19.722ZM57.9288 16.32C57.5834 16.32 57.2941 16.2127 57.0608 15.998C56.8368 15.774 56.7248 15.4987 56.7248 15.172C56.7248 14.8453 56.8368 14.5747 57.0608 14.36C57.2941 14.136 57.5834 14.024 57.9288 14.024C58.2741 14.024 58.5588 14.136 58.7828 14.36C59.0161 14.5747 59.1328 14.8453 59.1328 15.172C59.1328 15.4987 59.0161 15.774 58.7828 15.998C58.5588 16.2127 58.2741 16.32 57.9288 16.32ZM58.8948 17.244V25H56.9348V17.244H58.8948ZM60.3272 21.094C60.3272 20.31 60.4812 19.6147 60.7892 19.008C61.1066 18.4013 61.5312 17.9347 62.0632 17.608C62.6046 17.2813 63.2066 17.118 63.8692 17.118C64.4479 17.118 64.9519 17.2347 65.3812 17.468C65.8199 17.7013 66.1699 17.9953 66.4312 18.35V17.244H68.4052V25H66.4312V23.866C66.1792 24.23 65.8292 24.5333 65.3812 24.776C64.9426 25.0093 64.4339 25.126 63.8552 25.126C63.2019 25.126 62.6046 24.958 62.0632 24.622C61.5312 24.286 61.1066 23.8147 60.7892 23.208C60.4812 22.592 60.3272 21.8873 60.3272 21.094ZM66.4312 21.122C66.4312 20.646 66.3379 20.24 66.1512 19.904C65.9646 19.5587 65.7126 19.2973 65.3952 19.12C65.0779 18.9333 64.7372 18.84 64.3732 18.84C64.0092 18.84 63.6732 18.9287 63.3652 19.106C63.0572 19.2833 62.8052 19.5447 62.6092 19.89C62.4226 20.226 62.3292 20.6273 62.3292 21.094C62.3292 21.5607 62.4226 21.9713 62.6092 22.326C62.8052 22.6713 63.0572 22.9373 63.3652 23.124C63.6826 23.3107 64.0186 23.404 64.3732 23.404C64.7372 23.404 65.0779 23.3153 65.3952 23.138C65.7126 22.9513 65.9646 22.69 66.1512 22.354C66.3379 22.0087 66.4312 21.598 66.4312 21.122ZM84.3095 15.228V25H82.3495V18.644L79.7315 25H78.2475L75.6155 18.644V25H73.6555V15.228H75.8815L78.9895 22.494L82.0975 15.228H84.3095ZM85.7432 21.094C85.7432 20.31 85.8972 19.6147 86.2052 19.008C86.5226 18.4013 86.9473 17.9347 87.4793 17.608C88.0206 17.2813 88.6226 17.118 89.2853 17.118C89.8639 17.118 90.3679 17.2347 90.7973 17.468C91.2359 17.7013 91.5859 17.9953 91.8473 18.35V17.244H93.8213V25H91.8473V23.866C91.5953 24.23 91.2453 24.5333 90.7973 24.776C90.3586 25.0093 89.8499 25.126 89.2713 25.126C88.6179 25.126 88.0206 24.958 87.4793 24.622C86.9473 24.286 86.5226 23.8147 86.2052 23.208C85.8972 22.592 85.7432 21.8873 85.7432 21.094ZM91.8473 21.122C91.8473 20.646 91.7539 20.24 91.5673 19.904C91.3806 19.5587 91.1286 19.2973 90.8113 19.12C90.4939 18.9333 90.1533 18.84 89.7893 18.84C89.4253 18.84 89.0893 18.9287 88.7812 19.106C88.4733 19.2833 88.2213 19.5447 88.0253 19.89C87.8386 20.226 87.7453 20.6273 87.7453 21.094C87.7453 21.5607 87.8386 21.9713 88.0253 22.326C88.2213 22.6713 88.4733 22.9373 88.7812 23.124C89.0986 23.3107 89.4346 23.404 89.7893 23.404C90.1533 23.404 90.4939 23.3153 90.8113 23.138C91.1286 22.9513 91.3806 22.69 91.5673 22.354C91.7539 22.0087 91.8473 21.598 91.8473 21.122ZM95.2315 21.094C95.2315 20.31 95.3855 19.6147 95.6935 19.008C96.0109 18.4013 96.4402 17.9347 96.9815 17.608C97.5229 17.2813 98.1249 17.118 98.7875 17.118C99.2915 17.118 99.7722 17.23 100.23 17.454C100.687 17.6687 101.051 17.958 101.322 18.322V14.64H103.31V25H101.322V23.852C101.079 24.2347 100.738 24.5427 100.3 24.776C99.8609 25.0093 99.3522 25.126 98.7735 25.126C98.1202 25.126 97.5229 24.958 96.9815 24.622C96.4402 24.286 96.0109 23.8147 95.6935 23.208C95.3855 22.592 95.2315 21.8873 95.2315 21.094ZM101.336 21.122C101.336 20.646 101.242 20.24 101.056 19.904C100.869 19.5587 100.617 19.2973 100.3 19.12C99.9822 18.9333 99.6415 18.84 99.2775 18.84C98.9135 18.84 98.5775 18.9287 98.2695 19.106C97.9615 19.2833 97.7095 19.5447 97.5135 19.89C97.3269 20.226 97.2335 20.6273 97.2335 21.094C97.2335 21.5607 97.3269 21.9713 97.5135 22.326C97.7095 22.6713 97.9615 22.9373 98.2695 23.124C98.5869 23.3107 98.9229 23.404 99.2775 23.404C99.6415 23.404 99.9822 23.3153 100.3 23.138C100.617 22.9513 100.869 22.69 101.056 22.354C101.242 22.0087 101.336 21.598 101.336 21.122ZM106.218 16.32C105.872 16.32 105.583 16.2127 105.35 15.998C105.126 15.774 105.014 15.4987 105.014 15.172C105.014 14.8453 105.126 14.5747 105.35 14.36C105.583 14.136 105.872 14.024 106.218 14.024C106.563 14.024 106.848 14.136 107.072 14.36C107.305 14.5747 107.422 14.8453 107.422 15.172C107.422 15.4987 107.305 15.774 107.072 15.998C106.848 16.2127 106.563 16.32 106.218 16.32ZM107.184 17.244V25H105.224V17.244H107.184ZM112.088 25.126C111.454 25.126 110.884 25.014 110.38 24.79C109.876 24.5567 109.475 24.244 109.176 23.852C108.887 23.46 108.728 23.026 108.7 22.55H110.674C110.712 22.8487 110.856 23.096 111.108 23.292C111.37 23.488 111.692 23.586 112.074 23.586C112.448 23.586 112.737 23.5113 112.942 23.362C113.157 23.2127 113.264 23.0213 113.264 22.788C113.264 22.536 113.134 22.3493 112.872 22.228C112.62 22.0973 112.214 21.9573 111.654 21.808C111.076 21.668 110.6 21.5233 110.226 21.374C109.862 21.2247 109.545 20.996 109.274 20.688C109.013 20.38 108.882 19.9647 108.882 19.442C108.882 19.0127 109.004 18.6207 109.246 18.266C109.498 17.9113 109.853 17.6313 110.31 17.426C110.777 17.2207 111.323 17.118 111.948 17.118C112.872 17.118 113.61 17.3513 114.16 17.818C114.711 18.2753 115.014 18.896 115.07 19.68H113.194C113.166 19.372 113.036 19.1293 112.802 18.952C112.578 18.7653 112.275 18.672 111.892 18.672C111.538 18.672 111.262 18.7373 111.066 18.868C110.88 18.9987 110.786 19.1807 110.786 19.414C110.786 19.6753 110.917 19.876 111.178 20.016C111.44 20.1467 111.846 20.282 112.396 20.422C112.956 20.562 113.418 20.7067 113.782 20.856C114.146 21.0053 114.459 21.2387 114.72 21.556C114.991 21.864 115.131 22.2747 115.14 22.788C115.14 23.236 115.014 23.6373 114.762 23.992C114.52 24.3467 114.165 24.6267 113.698 24.832C113.241 25.028 112.704 25.126 112.088 25.126ZM120.193 25.126C119.447 25.126 118.775 24.9627 118.177 24.636C117.58 24.3 117.109 23.8287 116.763 23.222C116.427 22.6153 116.259 21.9153 116.259 21.122C116.259 20.3287 116.432 19.6287 116.777 19.022C117.132 18.4153 117.613 17.9487 118.219 17.622C118.826 17.286 119.503 17.118 120.249 17.118C120.996 17.118 121.673 17.286 122.279 17.622C122.886 17.9487 123.362 18.4153 123.707 19.022C124.062 19.6287 124.239 20.3287 124.239 21.122C124.239 21.9153 124.057 22.6153 123.693 23.222C123.339 23.8287 122.853 24.3 122.237 24.636C121.631 24.9627 120.949 25.126 120.193 25.126ZM120.193 23.418C120.548 23.418 120.879 23.334 121.187 23.166C121.505 22.9887 121.757 22.7273 121.943 22.382C122.13 22.0367 122.223 21.6167 122.223 21.122C122.223 20.3847 122.027 19.82 121.635 19.428C121.253 19.0267 120.781 18.826 120.221 18.826C119.661 18.826 119.19 19.0267 118.807 19.428C118.434 19.82 118.247 20.3847 118.247 21.122C118.247 21.8593 118.429 22.4287 118.793 22.83C119.167 23.222 119.633 23.418 120.193 23.418ZM129.975 17.132C130.899 17.132 131.646 17.426 132.215 18.014C132.784 18.5927 133.069 19.4047 133.069 20.45V25H131.109V20.716C131.109 20.1 130.955 19.6287 130.647 19.302C130.339 18.966 129.919 18.798 129.387 18.798C128.846 18.798 128.416 18.966 128.099 19.302C127.791 19.6287 127.637 20.1 127.637 20.716V25H125.677V17.244H127.637V18.21C127.898 17.874 128.23 17.6127 128.631 17.426C129.042 17.23 129.49 17.132 129.975 17.132Z" fill="#262338"/>
<path d="M155 17.1699C154.813 16.9837 154.559 16.8792 154.295 16.8792C154.031 16.8792 153.777 16.9837 153.59 17.1699L150 20.7099L146.46 17.1699C146.273 16.9837 146.019 16.8792 145.755 16.8792C145.491 16.8792 145.237 16.9837 145.05 17.1699C144.956 17.2629 144.882 17.3735 144.831 17.4954C144.78 17.6172 144.754 17.7479 144.754 17.8799C144.754 18.012 144.78 18.1427 144.831 18.2645C144.882 18.3864 144.956 18.497 145.05 18.5899L149.29 22.8299C149.383 22.9237 149.494 22.9981 149.615 23.0488C149.737 23.0996 149.868 23.1257 150 23.1257C150.132 23.1257 150.263 23.0996 150.385 23.0488C150.506 22.9981 150.617 22.9237 150.71 22.8299L155 18.5899C155.094 18.497 155.168 18.3864 155.219 18.2645C155.27 18.1427 155.296 18.012 155.296 17.8799C155.296 17.7479 155.27 17.6172 155.219 17.4954C155.168 17.3735 155.094 17.2629 155 17.1699Z" fill="#262338"/>
</svg>
